HIERARCHY
ROOT Hips
{
	OFFSET 0.000000 71.427986 0.000000
	CHANNELS 6 Xposition Yposition Zposition Xrotation Yrotation Zrotation
	JOINT Pelvis
	{
		OFFSET 0.000000 0.000000 0.000000
		CHANNELS 3 Xrotation Yrotation Zrotation
		JOINT LeftUpLeg
		{
			OFFSET 6.797100 -2.508499 -1.318700
			CHANNELS 3 Xrotation Yrotation Zrotation
			JOINT LeftLeg
			{
				OFFSET 0.069008 -29.241863 0.690200
				CHANNELS 3 Xrotation Yrotation Zrotation
				JOINT LeftFoot
				{
					OFFSET -0.069008 -29.568123 -0.266800
					CHANNELS 3 Xrotation Yrotation Zrotation
					JOINT LeftToeBase
					{
						OFFSET 3.145500 -8.631000 16.059900
						CHANNELS 3 Xrotation Yrotation Zrotation
						End Site
						{
							OFFSET 0.000000 18.501587 0.000000
						}
					}
				}
			}
			JOINT Left_ShortSleeve
			{
				OFFSET 0.265923 -10.480953 1.153800
				CHANNELS 3 Xrotation Yrotation Zrotation
				End Site
				{
					OFFSET 1.725763 19.823879 0.000000
				}
			}
		}
		JOINT RightUpLeg
		{
			OFFSET -6.797100 -2.508499 -1.318700
			CHANNELS 3 Xrotation Yrotation Zrotation
			JOINT RightLeg
			{
				OFFSET -0.082453 -29.241932 0.688000
				CHANNELS 3 Xrotation Yrotation Zrotation
				JOINT RightFoot
				{
					OFFSET 0.082453 -29.568058 -0.264600
					CHANNELS 3 Xrotation Yrotation Zrotation
					JOINT RightToeBase
					{
						OFFSET -3.115300 -8.682800 16.113400
						CHANNELS 3 Xrotation Yrotation Zrotation
						End Site
						{
							OFFSET 0.000000 18.567114 0.000000
						}
					}
				}
			}
			JOINT Right_ShortSleeve
			{
				OFFSET -0.265923 -10.480953 1.153800
				CHANNELS 3 Xrotation Yrotation Zrotation
				End Site
				{
					OFFSET -1.725766 19.823910 0.000000
				}
			}
		}
	}
	JOINT Spine
	{
		OFFSET 0.000000 13.368103 0.470500
		CHANNELS 3 Xrotation Yrotation Zrotation
		JOINT Spine1
		{
			OFFSET 0.147000 13.837402 0.538800
			CHANNELS 3 Xrotation Yrotation Zrotation
			JOINT Spine2
			{
				OFFSET 0.168000 16.242897 -1.435500
				CHANNELS 3 Xrotation Yrotation Zrotation
				JOINT Neck
				{
					OFFSET 0.217200 18.631500 -1.679100
					CHANNELS 3 Xrotation Yrotation Zrotation
					JOINT Head
					{
						OFFSET 0.000000 6.599396 1.385900
						CHANNELS 3 Xrotation Yrotation Zrotation
						JOINT Hat
						{
							OFFSET -0.532200 27.220596 -10.096100
							CHANNELS 3 Xrotation Yrotation Zrotation
							End Site
							{
								OFFSET 0.000000 22.029861 0.000000
							}
						}
						JOINT HairD
						{
							OFFSET -10.777400 17.437393 -1.325900
							CHANNELS 3 Xrotation Yrotation Zrotation
							JOINT HairD1
							{
								OFFSET -3.290299 -11.051193 1.062200
								CHANNELS 3 Xrotation Yrotation Zrotation
								End Site
								{
									OFFSET 0.000000 11.579437 0.000000
								}
							}
						}
						JOINT HairB
						{
							OFFSET -10.777400 17.437393 1.467900
							CHANNELS 3 Xrotation Yrotation Zrotation
							JOINT HairB1
							{
								OFFSET -1.561200 -12.956299 3.590200
								CHANNELS 3 Xrotation Yrotation Zrotation
								End Site
								{
									OFFSET 0.000000 13.534866 0.000000
								}
							}
						}
						JOINT HairA
						{
							OFFSET 9.713100 17.437393 1.467900
							CHANNELS 3 Xrotation Yrotation Zrotation
							JOINT HairA1
							{
								OFFSET 1.561200 -12.956299 3.590200
								CHANNELS 3 Xrotation Yrotation Zrotation
								End Site
								{
									OFFSET 0.000000 13.534866 0.000000
								}
							}
						}
						JOINT HairC
						{
							OFFSET 9.713100 17.437393 -1.325900
							CHANNELS 3 Xrotation Yrotation Zrotation
							JOINT HairC1
							{
								OFFSET 3.290300 -11.051193 1.062200
								CHANNELS 3 Xrotation Yrotation Zrotation
								End Site
								{
									OFFSET 0.000000 11.579437 0.000000
								}
							}
						}
					}
				}
				JOINT LeftShoulder
				{
					OFFSET 5.101800 15.108002 -2.763700
					CHANNELS 3 Xrotation Yrotation Zrotation
					JOINT LeftArm
					{
						OFFSET 9.825497 2.506317 -1.597400
						CHANNELS 3 Xrotation Yrotation Zrotation
						JOINT LeftForeArm
						{
							OFFSET 21.966244 0.000000 0.000000
							CHANNELS 3 Xrotation Yrotation Zrotation
							JOINT LeftHand
							{
								OFFSET 33.879036 0.000000 0.000000
								CHANNELS 3 Xrotation Yrotation Zrotation
								JOINT LeftHandThumb1
								{
									OFFSET 6.715286 -2.359680 3.363841
									CHANNELS 3 Xrotation Yrotation Zrotation
									JOINT LeftHandThumb2
									{
										OFFSET 2.507072 -1.447464 1.447461
										CHANNELS 3 Xrotation Yrotation Zrotation
										JOINT LeftHandThumb3
										{
											OFFSET 2.898338 -1.673355 1.673357
											CHANNELS 3 Xrotation Yrotation Zrotation
											End Site
											{
												OFFSET -0.295959 3.727692 -0.131651
											}
										}
									}
								}
								JOINT LeftHandIndex1
								{
									OFFSET 14.190811 -0.254547 3.840278
									CHANNELS 3 Xrotation Yrotation Zrotation
									JOINT LeftHandIndex2
									{
										OFFSET 3.551727 0.000000 -0.000000
										CHANNELS 3 Xrotation Yrotation Zrotation
										JOINT LeftHandIndex3
										{
											OFFSET 2.894196 0.000000 0.000000
											CHANNELS 3 Xrotation Yrotation Zrotation
											End Site
											{
												OFFSET -1.000603 2.690872 0.366626
											}
										}
									}
								}
								JOINT LeftHandMiddle1
								{
									OFFSET 13.776489 0.000000 0.000000
									CHANNELS 3 Xrotation Yrotation Zrotation
									JOINT LeftHandMiddle2
									{
										OFFSET 3.438232 0.000000 0.000000
										CHANNELS 3 Xrotation Yrotation Zrotation
										JOINT LeftHandMiddle3
										{
											OFFSET 3.691551 0.000000 0.000000
											CHANNELS 3 Xrotation Yrotation Zrotation
											End Site
											{
												OFFSET -1.082298 3.499527 0.457670
											}
										}
									}
								}
								JOINT LeftHandRing1
								{
									OFFSET 13.966164 -0.268127 -3.067488
									CHANNELS 3 Xrotation Yrotation Zrotation
									JOINT LeftHandRing2
									{
										OFFSET 3.162567 0.000000 0.000000
										CHANNELS 3 Xrotation Yrotation Zrotation
										JOINT LeftHandRing3
										{
											OFFSET 3.324348 0.000000 0.000000
											CHANNELS 3 Xrotation Yrotation Zrotation
											End Site
											{
												OFFSET -0.861900 3.184998 0.405154
											}
										}
									}
								}
								JOINT LeftHandPinky1
								{
									OFFSET 13.131393 -0.168503 -5.746925
									CHANNELS 3 Xrotation Yrotation Zrotation
									JOINT LeftHandPinky2
									{
										OFFSET 2.849182 0.000000 0.000000
										CHANNELS 3 Xrotation Yrotation Zrotation
										JOINT LeftHandPinky3
										{
											OFFSET 2.805038 0.000000 0.000000
											CHANNELS 3 Xrotation Yrotation Zrotation
											End Site
											{
												OFFSET -0.882500 2.642609 0.325652
											}
										}
									}
								}
							}
							JOINT Left_Sleeve
							{
								OFFSET 6.592125 -0.646545 0.805568
								CHANNELS 3 Xrotation Yrotation Zrotation
								End Site
								{
									OFFSET -0.000179 20.275787 -0.000000
								}
							}
						}
					}
				}
				JOINT RightShoulder
				{
					OFFSET -5.731700 15.108002 -2.763700
					CHANNELS 3 Xrotation Yrotation Zrotation
					JOINT RightArm
					{
						OFFSET -9.825497 2.506317 -1.597400
						CHANNELS 3 Xrotation Yrotation Zrotation
						JOINT RightForeArm
						{
							OFFSET -21.966242 0.000000 0.000000
							CHANNELS 3 Xrotation Yrotation Zrotation
							JOINT RightHand
							{
								OFFSET -33.879032 0.000000 0.000000
								CHANNELS 3 Xrotation Yrotation Zrotation
								JOINT RightHandThumb1
								{
									OFFSET -6.715286 -2.359680 3.363841
									CHANNELS 3 Xrotation Yrotation Zrotation
									JOINT RightHandThumb2
									{
										OFFSET -2.507072 -1.447464 1.447461
										CHANNELS 3 Xrotation Yrotation Zrotation
										JOINT RightHandThumb3
										{
											OFFSET -2.898338 -1.673355 1.673357
											CHANNELS 3 Xrotation Yrotation Zrotation
											End Site
											{
												OFFSET 0.295959 3.727692 -0.131651
											}
										}
									}
								}
								JOINT RightHandIndex1
								{
									OFFSET -14.190811 -0.254547 3.840278
									CHANNELS 3 Xrotation Yrotation Zrotation
									JOINT RightHandIndex2
									{
										OFFSET -3.551727 0.000000 -0.000000
										CHANNELS 3 Xrotation Yrotation Zrotation
										JOINT RightHandIndex3
										{
											OFFSET -2.894196 0.000000 0.000000
											CHANNELS 3 Xrotation Yrotation Zrotation
											End Site
											{
												OFFSET 1.000603 2.690872 0.366626
											}
										}
									}
								}
								JOINT RightHandMiddle1
								{
									OFFSET -13.776489 0.000000 0.000000
									CHANNELS 3 Xrotation Yrotation Zrotation
									JOINT RightHandMiddle2
									{
										OFFSET -3.438232 0.000000 0.000000
										CHANNELS 3 Xrotation Yrotation Zrotation
										JOINT RightHandMiddle3
										{
											OFFSET -3.691551 0.000000 0.000000
											CHANNELS 3 Xrotation Yrotation Zrotation
											End Site
											{
												OFFSET 1.082298 3.499527 0.457670
											}
										}
									}
								}
								JOINT RightHandRing1
								{
									OFFSET -13.966164 -0.268127 -3.067488
									CHANNELS 3 Xrotation Yrotation Zrotation
									JOINT RightHandRing2
									{
										OFFSET -3.162567 0.000000 0.000000
										CHANNELS 3 Xrotation Yrotation Zrotation
										JOINT RightHandRing3
										{
											OFFSET -3.324348 0.000000 0.000000
											CHANNELS 3 Xrotation Yrotation Zrotation
											End Site
											{
												OFFSET 0.861900 3.184998 0.405154
											}
										}
									}
								}
								JOINT RightHandPinky1
								{
									OFFSET -13.131393 -0.168503 -5.746925
									CHANNELS 3 Xrotation Yrotation Zrotation
									JOINT RightHandPinky2
									{
										OFFSET -2.849182 0.000000 0.000000
										CHANNELS 3 Xrotation Yrotation Zrotation
										JOINT RightHandPinky3
										{
											OFFSET -2.805038 0.000000 0.000000
											CHANNELS 3 Xrotation Yrotation Zrotation
											End Site
											{
												OFFSET 0.882500 2.642609 0.325652
											}
										}
									}
								}
							}
							JOINT Right_Sleeve
							{
								OFFSET -6.592125 -0.646545 0.805568
								CHANNELS 3 Xrotation Yrotation Zrotation
								End Site
								{
									OFFSET 0.000179 20.275787 -0.000000
								}
							}
						}
					}
				}
				JOINT Bind_Right_JacketString
				{
					OFFSET -3.534800 11.969597 7.200700
					CHANNELS 3 Xrotation Yrotation Zrotation
					JOINT Bind_Right_JacketString1
					{
						OFFSET -0.319900 -6.102600 2.794100
						CHANNELS 3 Xrotation Yrotation Zrotation
						End Site
						{
							OFFSET 0.000000 6.719452 0.000000
						}
					}
				}
				JOINT Bind_Left_JacketString
				{
					OFFSET 2.904800 11.969597 7.200700
					CHANNELS 3 Xrotation Yrotation Zrotation
					JOINT Bind_Left_JacketString1
					{
						OFFSET 0.364800 -5.904503 3.186800
						CHANNELS 3 Xrotation Yrotation Zrotation
						End Site
						{
							OFFSET 0.000000 6.719513 0.000000
						}
					}
				}
				JOINT HairE
				{
					OFFSET 5.915200 17.612701 -11.592200
					CHANNELS 3 Xrotation Yrotation Zrotation
					JOINT HairE1
					{
						OFFSET 0.289200 -7.171898 -1.284500
						CHANNELS 3 Xrotation Yrotation Zrotation
						End Site
						{
							OFFSET 0.000000 7.291756 0.000000
						}
					}
				}
				JOINT HairF
				{
					OFFSET -0.864800 17.612701 -11.592200
					CHANNELS 3 Xrotation Yrotation Zrotation
					JOINT HairF1
					{
						OFFSET 0.000000 -14.087097 -2.127501
						CHANNELS 3 Xrotation Yrotation Zrotation
						End Site
						{
							OFFSET 0.000000 14.246841 0.000000
						}
					}
				}
				JOINT HairG
				{
					OFFSET -8.087700 17.612701 -11.592200
					CHANNELS 3 Xrotation Yrotation Zrotation
					JOINT HairG1
					{
						OFFSET -0.293600 -6.081398 -0.910100
						CHANNELS 3 Xrotation Yrotation Zrotation
						End Site
						{
							OFFSET 0.000000 6.156120 0.000000
						}
					}
				}
			}
		}
	}
	JOINT Pouch
	{
		OFFSET 0.000000 4.394501 10.847300
		CHANNELS 3 Xrotation Yrotation Zrotation
		End Site
		{
			OFFSET 0.000000 21.880577 0.000000
		}
	}
	JOINT Bag
	{
		OFFSET -13.229000 4.813004 -0.593300
		CHANNELS 3 Xrotation Yrotation Zrotation
		End Site
		{
			OFFSET 0.000000 21.880577 0.000000
		}
	}
	JOINT OccupyGuyFacialAnim_Joint
	{
		OFFSET 1.000000 -70.206398 -1.655000
		CHANNELS 3 Xrotation Yrotation Zrotation
		End Site
		{
			OFFSET 0.000000 21.880577 0.000000
		}
	}
}
MOTION
Frames: 4
Frame Time: 0.016667
-5.062024 68.904823 330.587219 178.435933 18.240515 -176.190686 0.000000 -0.000000 0.000000 -3.803714 2.847450 -13.345889 23.800607 1.945156 1.847842 -21.474986 -0.163830 1.385438 -0.000000 -0.000000 0.000000 0.000001 -0.000002 -0.000000 -7.570739 -11.890991 -14.115230 58.055577 -11.337755 -1.490629 13.979715 -7.518345 28.874304 0.000002 -0.000000 0.000001 0.000001 0.000000 -0.000000 -8.344177 8.448678 -2.403330 2.885765 0.867784 -2.840126 2.918912 0.925581 -2.789144 -2.267353 -1.126767 -1.980808 5.163782 9.476486 4.286313 0.000000 -0.000000 0.000000 0.000000 -0.000000 0.000000 0.000000 -0.000000 -0.000000 0.000000 -0.000000 0.000000 -0.000000 -0.000000 -0.000000 0.000000 -0.000000 0.000000 -0.000000 -0.000000 -0.000000 0.000000 -0.000000 0.000000 0.000000 -0.000000 0.000000 2.179067 -9.179414 -8.047977 14.406956 29.963961 -77.628638 0.000006 -34.684459 0.000008 14.422655 3.046598 -0.816630 -6.684706 7.621252 19.674613 12.443677 25.448701 -7.963737 0.000001 0.000002 0.000002 -0.599919 -1.191960 -15.838710 0.763111 3.155582 -27.183140 0.000001 -0.000001 -0.000002 -0.513517 -1.737478 -12.002744 0.474074 2.515164 -21.345287 0.000001 0.000002 -0.000001 0.001061 0.779655 -12.836422 0.906740 3.420419 -29.687096 -0.000002 -0.000000 0.000004 2.100228 10.721549 -11.319412 0.694472 -1.057924 -26.220960 0.000002 -0.000001 0.000001 -0.000001 0.000000 -0.000000 1.176339 8.510089 2.447319 54.046635 33.855868 65.975707 0.000009 63.444036 -0.000009 52.855552 43.637211 -78.072587 2.028308 4.773710 9.571613 4.642468 -8.639198 -0.222148 -0.000000 -0.000001 0.000001 8.333993 12.771162 -38.552648 0.273816 -1.935653 16.100462 -0.000004 -0.000000 0.000005 3.496423 8.099771 -28.749356 0.565339 -2.750997 23.221788 0.000004 -0.000001 -0.000003 1.427750 5.041201 -20.610594 0.144907 -1.414965 11.694190 -0.000001 0.000001 -0.000002 -3.351259 -9.486531 -18.455422 0.124459 -1.312293 10.834514 0.000003 0.000000 0.000002 0.000001 -0.000000 -0.000001 -0.000000 0.000000 -0.000000 -0.000000 0.000001 0.000000 -0.000000 0.000000 -0.000000 -0.000000 0.000000 -0.000000 -0.000000 0.000000 -0.000000 -0.000000 0.000001 -0.000000 -0.000000 0.000000 -0.000000 -0.000000 0.000000 -0.000000 -0.000000 0.000000 -0.000000 -0.000000 0.000001 -0.000000 0.000000 -0.000000 0.000000 0.000000 -0.000000 0.000000 0.000000 -0.000000 0.000000 
-5.238764 68.657455 330.181183 178.555065 17.718481 -175.860514 -0.000000 -0.000001 -0.000000 -3.940774 3.076251 -13.781363 25.234979 1.212283 1.648499 -22.512802 -0.162645 1.475382 0.000000 0.000000 -0.000000 0.000000 0.000001 -0.000002 -10.320136 -11.139270 -15.542092 60.962211 -10.331139 -1.756632 17.233329 -5.445855 27.736188 -0.000001 -0.000002 0.000001 -0.000000 0.000004 0.000001 -8.130581 8.101476 -2.137382 2.875274 0.818130 -2.931603 2.908801 0.873100 -2.883819 -2.130120 -0.781070 -2.167741 5.293202 11.076066 3.964216 0.000000 -0.000000 0.000000 0.000000 -0.000000 0.000000 0.000000 -0.000000 -0.000000 0.000000 -0.000000 0.000000 0.000000 0.000000 0.000000 0.000000 -0.000000 0.000000 0.000000 0.000000 0.000000 0.000000 -0.000000 0.000000 0.000000 -0.000000 0.000000 2.350523 -9.842294 -8.206663 12.252321 28.921302 -76.587184 0.000002 -33.323940 0.000005 15.503474 3.149342 -1.500093 -6.700413 7.648496 20.154630 12.316244 25.187812 -7.880612 0.000000 0.000001 -0.000003 -0.634958 -1.349609 -15.696746 0.763053 3.155483 -27.182240 0.000003 0.000001 -0.000002 -0.502565 -1.793118 -11.613242 0.485397 2.543910 -21.601805 0.000003 -0.000001 -0.000001 -0.009622 0.728883 -12.781713 0.923268 3.449217 -29.963101 -0.000000 0.000003 0.000000 1.964083 10.449552 -10.849552 0.730366 -0.986118 -26.885465 -0.000000 0.000000 0.000003 0.000000 0.000002 -0.000000 1.147073 8.186079 2.395672 53.514143 32.226086 67.039939 0.000059 64.113599 -0.000068 51.483849 43.898411 -75.395781 1.630049 4.544525 9.876822 4.619474 -8.628182 -0.234486 0.000001 0.000000 0.000001 8.024317 12.463485 -38.292762 0.272147 -1.929967 16.051747 -0.000000 -0.000000 0.000000 3.286616 7.766336 -28.519706 0.563633 -2.746990 23.185637 0.000001 -0.000002 -0.000001 1.292484 4.713897 -20.382830 0.143442 -1.407887 11.634667 0.000000 -0.000002 0.000000 -3.406001 -9.828157 -18.246060 0.124787 -1.314082 10.849478 -0.000001 0.000001 0.000001 0.000002 -0.000001 0.000001 0.000000 -0.000001 0.000000 0.000000 0.000000 -0.000000 0.000000 -0.000001 0.000000 0.000000 -0.000001 0.000000 0.000000 -0.000001 0.000000 0.000000 0.000000 -0.000000 0.000000 -0.000001 0.000000 0.000000 -0.000001 0.000000 0.000000 -0.000001 0.000000 0.000000 0.000000 -0.000000 -0.000000 -0.000001 -0.000000 -0.000000 -0.000001 -0.000000 -0.000000 -0.000001 -0.000000 
-5.394675 68.365417 329.842224 178.687325 17.367243 -175.467150 -0.000000 0.000001 0.000000 -4.240592 3.237381 -14.348083 26.860597 0.760628 1.536831 -23.599977 -0.165476 1.541037 0.000000 -0.000001 -0.000000 -0.000000 -0.000001 -0.000003 -13.822246 -9.697785 -16.845471 65.676572 -9.717907 -2.078617 19.708052 -4.016683 26.714868 0.000001 0.000000 -0.000002 -0.000000 -0.000001 -0.000001 -7.694852 7.703921 -2.025632 2.875485 0.762738 -2.993524 2.908380 0.813678 -2.949339 -2.055260 -0.454483 -2.308380 5.231539 12.641308 3.684728 0.000000 0.000000 -0.000000 0.000000 0.000000 -0.000000 0.000000 0.000000 -0.000000 0.000000 0.000000 -0.000000 0.000000 0.000000 0.000000 0.000000 0.000000 -0.000000 0.000000 0.000000 0.000000 0.000000 0.000000 -0.000000 0.000000 0.000000 -0.000000 2.546451 -10.572192 -8.378386 9.922147 27.756104 -75.391990 0.000001 -32.041910 0.000006 16.831393 3.251079 -2.443232 -6.700557 7.737797 20.690861 12.203165 24.954398 -7.806904 -0.000000 0.000002 -0.000001 -0.673809 -1.516355 -15.590018 0.762994 3.155360 -27.181165 0.000004 -0.000002 -0.000000 -0.478430 -1.803007 -11.152382 0.496703 2.572269 -21.855236 -0.000001 0.000001 0.000003 -0.003892 0.744791 -12.628206 0.940809 3.479388 -30.253230 0.000001 0.000002 0.000000 1.821259 10.186831 -10.297961 0.772717 -0.903959 -27.650752 -0.000000 -0.000001 0.000003 -0.000000 0.000001 0.000000 1.128168 7.962232 2.448088 52.967174 30.554964 67.976904 -0.000017 64.710845 0.000021 50.178576 44.005997 -72.730156 1.538526 4.517424 9.972488 4.594842 -8.614996 -0.248080 -0.000003 -0.000001 0.000000 7.968359 12.398187 -38.277780 0.271538 -1.927793 16.033123 -0.000001 0.000003 -0.000003 3.250995 7.703719 -28.510828 0.563242 -2.746085 23.177682 0.000005 -0.000001 0.000001 1.270419 4.657455 -20.365558 0.142514 -1.403331 11.596593 0.000003 -0.000002 -0.000002 -3.420584 -9.891950 -18.227589 0.124333 -1.311610 10.828821 -0.000000 -0.000001 -0.000001 0.000001 0.000000 0.000001 0.000000 -0.000001 -0.000000 0.000000 -0.000001 0.000000 0.000000 -0.000001 -0.000000 0.000000 -0.000001 -0.000000 0.000000 -0.000001 -0.000000 0.000000 -0.000001 -0.000000 0.000000 -0.000001 -0.000000 0.000000 -0.000001 -0.000000 0.000000 -0.000001 -0.000000 0.000000 -0.000001 -0.000000 -0.000000 0.000001 0.000000 -0.000000 0.000001 0.000000 -0.000000 0.000001 0.000000 
-5.518386 68.024307 329.558472 178.898787 17.148623 -175.035974 -0.000000 0.000001 -0.000000 -4.548901 3.372183 -15.029112 28.553961 0.588560 1.477610 -24.699863 -0.211465 1.719564 0.000000 0.000000 0.000000 0.000001 -0.000001 0.000002 -17.883935 -7.486872 -17.893055 72.060292 -9.679837 -2.410596 21.627883 -2.879024 25.589920 -0.000001 -0.000001 0.000002 -0.000001 -0.000000 -0.000000 -6.980174 7.231844 -2.091478 2.893130 0.698838 -3.014761 2.924216 0.744277 -2.974637 -2.071823 -0.141755 -2.407374 4.963951 14.191076 3.450174 0.000000 -0.000000 0.000000 0.000000 -0.000000 0.000000 0.000000 -0.000000 0.000000 0.000000 -0.000000 0.000000 0.000000 0.000000 0.000000 0.000000 -0.000000 0.000000 0.000000 0.000000 0.000000 0.000000 -0.000000 0.000000 0.000000 -0.000000 0.000000 2.756976 -11.327255 -8.553152 7.462149 26.390225 -74.021711 0.000003 -30.901569 0.000010 18.404086 3.328756 -3.716069 -6.679932 7.905288 21.241962 12.115551 24.772309 -7.749847 0.000000 -0.000000 0.000002 -0.715145 -1.681680 -15.537900 0.762925 3.155228 -27.179853 0.000002 0.000002 -0.000001 -0.441818 -1.753588 -10.653337 0.508279 2.600898 -22.111573 -0.000000 0.000001 0.000001 0.018861 0.833775 -12.381417 0.958586 3.509637 -30.544859 -0.000002 0.000000 -0.000002 1.680021 9.950118 -9.693213 0.819466 -0.816292 -28.473209 -0.000002 -0.000002 0.000001 0.000000 -0.000001 -0.000000 1.119225 7.836396 2.584076 52.387353 28.918854 68.720664 -0.000023 65.210405 0.000013 49.212773 43.993423 -70.307543 1.612553 4.590516 9.914302 4.591461 -8.611596 -0.250445 0.000000 0.000000 -0.000000 8.043924 12.469100 -38.358079 0.271742 -1.928489 16.039232 -0.000003 0.000001 -0.000001 3.304420 7.786622 -28.584707 0.563699 -2.747169 23.187244 0.000004 -0.000002 -0.000001 1.306161 4.743797 -20.435250 0.142632 -1.403907 11.601404 0.000000 -0.000000 -0.000002 -3.408490 -9.802897 -18.290290 0.124147 -1.310592 10.820413 0.000003 0.000000 -0.000001 0.000002 -0.000001 -0.000000 -0.000000 0.000001 -0.000000 -0.000000 0.000001 0.000000 -0.000000 0.000001 -0.000000 -0.000000 0.000001 -0.000000 -0.000000 0.000001 -0.000000 -0.000000 0.000001 -0.000000 -0.000000 0.000001 -0.000000 -0.000000 0.000001 -0.000000 -0.000000 0.000001 -0.000000 -0.000000 0.000001 -0.000000 -0.000000 0.000001 -0.000000 -0.000000 0.000001 -0.000000 -0.000000 0.000001 -0.000000 
